#!OML:ASF I:\Actors\actors\Patient Classification 1\Patient 1\Session 1\Subject1.ASF
:FULLY-SPECIFIED
:DEGREES
1004
root 0.750081 17.443 9.88127 11.1506 -2.2167 -8.38785
lowerback -0.891608 1.70991 6.79029
upperback -9.55322 2.69299 1.09506
thorax -9.39682 0.82723 -2.80704
lowerneck -14.3062 -1.77791 -1.62313
upperneck 25.6992 -4.49386 8.5285
head 10.8958 -1.18989 2.75119
rclavicle 4.77083e-015 -3.97569e-016
rhumerus -57.0698 -39.2237 -48.9458
rradius 19.0222
rwrist 59.8748
rhand -1.63041 -28.8921
rfingers 7.12502
rthumb 24.0278 -57.4081
lclavicle 4.77083e-015 -3.97569e-016
lhumerus -65.4468 46.8606 31.9145
lradius 11.6735
lwrist -71.7529
lhand -21.1688 -18.5532
lfingers 7.12502
lthumb 5.21134 11.3628
rfemur -3.56585 24.6816 25.0297
rtibia 2.21034
rfoot -13.1383 -25.9188
rtoes 1.73541
lfemur 7.96807 -47.9316 -15.7261
ltibia -5.00887
lfoot -30.5899 55.8457
ltoes 16.3819
1005
root 0.750972 17.4421 9.87452 11.1595 -2.18322 -8.35224
lowerback -1.00296 1.73381 6.74741
upperback -9.54259 2.71159 1.07799
thorax -9.31687 0.842366 -2.79845
lowerneck -14.1598 -1.79816 -1.68408
upperneck 25.5704 -4.51747 8.61331
head 10.8236 -1.20338 2.78654
rclavicle 4.96962e-017 -3.10104e-014
rhumerus -56.481 -38.4331 -50.0153
rradius 19.2027
rwrist 58.9942
rhand -1.55918 -28.8059
rfingers 7.12502
rthumb 24.0961 -57.3129
lclavicle 4.96962e-017 -3.10104e-014
lhumerus -62.535 45.5822 35.9352
lradius 11.9368
lwrist -66.7886
lhand -23.9153 -17.8818
lfingers 7.12502
lthumb 2.55918 12.0826
rfemur -3.60103 24.6868 24.9662
rtibia 2.2035
rfoot -13.1686 -25.9499
rtoes 1.89289
lfemur 7.86945 -47.8958 -15.6893
ltibia -5.00843
lfoot -30.2442 55.8568
ltoes 16.0357
1006
root 0.75184 17.4422 9.86861 11.1065 -2.11931 -8.27496
lowerback -1.06263 1.74313 6.67368
upperback -9.51663 2.71243 1.04976
thorax -9.25226 0.850372 -2.78518
lowerneck -14.0906 -1.81767 -1.74719
upperneck 25.5471 -4.54776 8.69193
head 10.8066 -1.21622 2.82164
rclavicle -1.3418e-015 0
rhumerus -55.8428 -37.5087 -51.226
rradius 19.4342
rwrist 57.9533
rhand -1.49591 -28.7983
rfingers 7.12502
rthumb 24.1568 -57.2972
lclavicle -1.3418e-015 0
lhumerus -60.6236 44.7482 38.5393
lradius 12.1372
lwrist -63.203
lhand -26.0435 -17.063
lfingers 7.12502
lthumb 0.503685 12.9161
rfemur -3.53474 24.7741 24.903
rtibia 2.17859
rfoot -13.2549 -26.0701
rtoes 2.3864
lfemur 7.82745 -47.7717 -15.7295
ltibia -5.01157
lfoot -29.8793 55.7272
ltoes 15.9432
1007
root 0.752813 17.4433 9.86213 11.0331 -2.03042 -8.25251
lowerback -1.05199 1.75648 6.69846
upperback -9.5058 2.7303 1.02465
thorax -9.24284 0.85665 -2.82696
lowerneck -14.0828 -1.84416 -1.80859
upperneck 25.64 -4.58778 8.72928
head 10.8445 -1.23366 2.84294
rclavicle -1.59525e-014 2.10712e-014
rhumerus -55.4312 -36.8118 -52.0842
rradius 19.6447
rwrist 57.2018
rhand -1.42574 -28.788
rfingers 7.12502
rthumb 24.2241 -57.278
lclavicle -1.59525e-014 2.10712e-014
lhumerus -59.4092 44.2266 40.1762
lradius 12.3122
lwrist -60.8149
lhand -27.3498 -16.245
lfingers 7.12502
lthumb -0.757961 13.7334
rfemur -3.45026 24.8627 24.9292
rtibia 2.16957
rfoot -13.2927 -26.2207
rtoes 2.64947
lfemur 7.77542 -47.5962 -15.6892
ltibia -5.00142
lfoot -29.5284 55.5104
ltoes 15.8294
1008
root 0.754026 17.4433 9.85646 10.9808 -1.90972 -8.25693
lowerback -1.06859 1.75559 6.75012
upperback -9.50772 2.72993 1.01988
thorax -9.23385 0.852539 -2.86009
lowerneck -14.0358 -1.86677 -1.83263
upperneck 25.7236 -4.60961 8.69049
head 10.8669 -1.24946 2.83216
rclavicle -9.14409e-015 -8.74653e-015
rhumerus -55.2262 -36.419 -52.4919
rradius 19.7324
rwrist 56.835
rhand -1.42325 -28.6617
rfingers 7.12502
rthumb 24.2265 -57.1513
lclavicle -9.14409e-015 -8.74653e-015
lhumerus -59.0009 44.248 40.6543
lradius 12.4222
lwrist -59.9329
lhand -27.7782 -15.5946
lfingers 7.12502
lthumb -1.17173 14.382
rfemur -3.37205 24.9212 24.9826
rtibia 2.12017
rfoot -13.2377 -26.4081
rtoes 2.63063
lfemur 7.69731 -47.476 -15.6013
ltibia -4.992
lfoot -29.2467 55.3445
ltoes 15.7894
